<svg id="Capa_1" enable-background="new 0 0 512 512" height="512" viewBox="0 0 512 512" width="512" xmlns="http://www.w3.org/2000/svg"><g><path d="m344.151 335.996h-114.302c-2.543 0-4.913 1.289-6.295 3.423s-1.589 4.824-.549 7.144l14.019 31.282c1.209 2.697 3.889 4.433 6.844 4.433h86.266c2.956 0 5.635-1.736 6.844-4.433l14.019-31.282c1.04-2.32.833-5.01-.549-7.144s-3.754-3.423-6.297-3.423zm-18.876 31.282h-76.551l-7.296-16.282h91.144z"/><path d="m444.5 373.496v40.5c0 4.142 3.358 7.5 7.5 7.5s7.5-3.358 7.5-7.5v-40.5c0-4.142-3.358-7.5-7.5-7.5s-7.5 3.358-7.5 7.5z"/><path d="m92.556 407.996h-.01c-4.142 0-7.495 3.358-7.495 7.5s3.363 7.5 7.505 7.5 7.5-3.358 7.5-7.5-3.358-7.5-7.5-7.5z"/><path d="m92.556 435.996h-.01c-4.142 0-7.495 3.358-7.495 7.5s3.363 7.5 7.505 7.5 7.5-3.358 7.5-7.5-3.358-7.5-7.5-7.5z"/><path d="m504.5 496.996h-15v-32.936c0-4.142-3.358-7.5-7.5-7.5s-7.5 3.358-7.5 7.5v32.936h-45v-138.5c0-4.136 3.364-7.5 7.5-7.5h30c4.136 0 7.5 3.364 7.5 7.5v70.564c0 4.142 3.358 7.5 7.5 7.5s7.5-3.358 7.5-7.5v-70.564c0-12.407-10.093-22.5-22.5-22.5h-9.567l-9.722-12.77h16.736c13.353 0 24.217-10.864 24.217-24.222 0-13.353-10.864-24.217-24.217-24.217h-17.852c-7.115 0-13.417 3.486-17.337 8.824l-15.628-44.557c-4.837-13.792-17.908-23.059-32.524-23.059h-34.786c-4.142 0-7.5 3.358-7.5 7.5s3.358 7.5 7.5 7.5h34.786c8.255 0 15.638 5.234 18.37 13.024l22.52 64.207h-260.307l77.23-77.23h72.4c4.142 0 7.5-3.358 7.5-7.5s-3.358-7.5-7.5-7.5h-57.4l171.918-171.918c3.306-3.306 5.127-7.702 5.127-12.377 0-4.676-1.821-9.072-5.127-12.377l-14.2-14.201c-6.825-6.825-17.93-6.825-24.754 0l-269.297 269.296c-7.57-2.922-15.545-4.423-23.787-4.423h-2.527c-36.523 0-66.236 29.714-66.236 66.237v4.263c0 4.142 3.358 7.5 7.5 7.5s7.5-3.358 7.5-7.5v-4.263c0-28.252 22.984-51.237 51.236-51.237h2.527c4.037 0 7.989.47 11.832 1.378l-30.598 30.598c-10.74 10.74-10.739 28.216 0 38.956 5.37 5.37 12.423 8.055 19.477 8.055s14.108-2.685 19.478-8.055l30.007-30.008c.687 3.366 1.04 6.809 1.04 10.312v130.763h-15v-67.5c0-12.407-10.093-22.5-22.5-22.5h-30c-12.407 0-22.5 10.093-22.5 22.5v67.5h-15v-91.5c0-4.142-3.358-7.5-7.5-7.5s-7.5 3.358-7.5 7.5v121.5h-17.535c-4.142 0-7.5 3.358-7.5 7.5s3.358 7.5 7.5 7.5h497c4.142 0 7.5-3.358 7.5-7.5s-3.358-7.499-7.5-7.499zm-179.714-373.079-27.523 27.523v-35.485l27.523-27.523zm15-50.485 27.523-27.523v35.484l-27.523 27.523zm-57.524 93.008-27.523 27.523v-35.485l27.523-27.523zm-42.523 42.523-27.523 27.523v-35.485l27.523-27.523zm-42.523 42.524-27.523 27.523v-35.485l27.523-27.523zm-42.523 42.523-28.232 28.232v-35.485l28.232-28.232zm23.931 56.986c4.626 0 8.956 2.274 11.582 6.083l7.032 10.199h-37.201v-16.282zm-18.588 69.312h54.764v14.075c0 10.083 8.203 18.285 18.285 18.285h107.829c10.083 0 18.285-8.203 18.285-18.285v-14.075h55.3v46.688h-254.463zm0 61.688h22.426v15h-22.426zm37.425 0h179.077v15h-179.077zm194.078 0h22.961v15h-22.961zm22.961-123.5v8.782h-37.737l7.033-10.202c2.625-3.807 6.953-6.08 11.577-6.08h20.417c-.832 2.347-1.29 4.871-1.29 7.5zm-19.126-22.5c-9.558 0-18.502 4.698-23.927 12.566l-8.144 11.812c-2.957 4.289-3.289 9.817-.867 14.428s7.162 7.476 12.371 7.476h39.693v23.03h-133.181c-4.142 0-7.5 3.358-7.5 7.5s3.358 7.5 7.5 7.5h62.88v14.075c0 1.812-1.474 3.285-3.285 3.285h-107.829c-1.812 0-3.285-1.474-3.285-3.285v-14.075h16.519c4.142 0 7.5-3.358 7.5-7.5s-3.358-7.5-7.5-7.5h-86.284v-23.03h39.157c5.208 0 9.949-2.865 12.371-7.476s2.09-10.139-.867-14.428l-8.142-11.809c-5.426-7.87-14.372-12.569-23.931-12.569h-18.593c-.015-4.332-.45-8.596-1.282-12.77h270.109l9.722 12.77c.001 0-41.899 0-43.205 0zm44.7-39.688c0-3.595 2.925-6.521 6.521-6.521h17.852c5.082 0 9.217 4.135 9.217 9.222 0 5.082-4.135 9.217-9.217 9.217h-24.373zm-42.585-280.579c.488-.488 1.129-.732 1.771-.732s1.283.244 1.771.732l14.201 14.201c.638.638.733 1.383.733 1.771 0 .387-.096 1.132-.733 1.77l-32.922 32.922v-35.483zm-311.85 329.593c-4.892-4.892-4.892-12.851 0-17.743l25.822-25.822v35.485l-8.08 8.08c-4.891 4.891-12.85 4.891-17.742 0zm-15.603 54.174c0-4.136 3.364-7.5 7.5-7.5h30c4.136 0 7.5 3.364 7.5 7.5v67.5h-45zm-30 82.5h105v15h-105z"/></g></svg>