<svg id="Layer_1" height="512" viewBox="0 0 512 512" width="512" xmlns="http://www.w3.org/2000/svg" data-name="Layer 1"><path d="m471.81 74a31.226 31.226 0 0 0 -31.192 31.191v40.355h-56.884c1.226-1.265 2.661-2.673 4.081-4.066l.047-.046.007-.006a5 5 0 0 0 -7-7.142l-.018.018-.008.008-.014.014c-3.5 3.432-7.111 6.966-8.388 7.291-1.279-.325-4.9-3.872-8.407-7.31l-.021-.021a5 5 0 0 0 -7 7.142l.008.007.037.037c1.423 1.395 2.862 2.806 4.091 4.074h-93.857c1.227-1.265 2.661-2.673 4.082-4.066l.047-.046.007-.006a5 5 0 0 0 -7-7.142l-.024.023-.011.012c-3.5 3.432-7.113 6.967-8.389 7.292-1.277-.325-4.887-3.86-8.389-7.292l-.011-.012-.023-.023a5 5 0 0 0 -7 7.142l.007.006.047.046c1.421 1.393 2.856 2.8 4.082 4.066h-93.866c1.227-1.265 2.661-2.673 4.082-4.066l.047-.046.007-.006a5 5 0 1 0 -7-7.142l-.008.007c-3.512 3.443-7.139 7-8.42 7.324-1.275-.325-4.876-3.849-8.373-7.277l-.044-.043-.011-.011a5 5 0 0 0 -7 7.142l.008.007.012.012c1.432 1.4 2.879 2.824 4.116 4.1h-56.886v-40.356a31.191 31.191 0 1 0 -62.381 0v327.809a5 5 0 0 0 5 5h52.381a5 5 0 0 0 5-5v-54.517h55.906c-.991 1-2.067 2.053-3.134 3.1l-.022.022a5 5 0 0 0 7 7.142l.01-.011h.006l.01-.009c3.5-3.436 7.12-6.977 8.4-7.3 1.279.326 4.9 3.873 8.409 7.312l.019.019a5 5 0 0 0 7-7.142l-.011-.011-.01-.009-.008-.008v-.006l-.014-.013c-1.056-1.035-2.122-2.08-3.1-3.068h91.9c-.981.988-2.047 2.033-3.1 3.068l-.014.013v.006l-.008.008-.01.009-.011.011a5 5 0 1 0 7 7.142l.016-.016c3.509-3.439 7.132-6.989 8.412-7.315 1.279.326 4.9 3.876 8.412 7.315l.016.016a5 5 0 0 0 7-7.142l-.012-.011-.009-.009-.008-.008v-.006l-.014-.013c-1.056-1.035-2.122-2.08-3.1-3.068h91.9c-.986.993-2.057 2.044-3.119 3.084a.307.307 0 0 1 -.026.025l-.01.011a5 5 0 1 0 7 7.142c3.514-3.444 7.146-7 8.428-7.331 1.278.325 4.891 3.864 8.4 7.3l.01.01.006.006.013.013a5 5 0 0 0 7-7.142l-.012-.011-.008-.009-.008-.008-.006-.006-.014-.013c-1.056-1.035-2.121-2.08-3.1-3.068h55.9v54.496a5 5 0 0 0 5 5h52.334a5 5 0 0 0 5-5v-327.809a31.226 31.226 0 0 0 -31.19-31.191zm-410.429 354h-42.381v-322.809a21.191 21.191 0 1 1 42.381 0zm379.237-59.517h-55.906c1-1 2.083-2.068 3.157-3.121a5 5 0 1 0 -7-7.14c-3.515 3.444-7.146 7-8.428 7.33-1.28-.325-4.9-3.876-8.415-7.317l-.013-.014a5 5 0 0 0 -7 7.142l.012.012.018.018.01.008c1.061 1.04 2.131 2.09 3.117 3.082h-91.9c1-1 2.083-2.068 3.157-3.121a5 5 0 0 0 -7-7.14l-.007.006-.011.01-.019.02c-3.5 3.432-7.114 6.969-8.391 7.294-1.277-.325-4.888-3.862-8.391-7.294l-.019-.02-.011-.01-.007-.006a5 5 0 1 0 -7 7.14c1.074 1.053 2.159 2.117 3.157 3.121h-91.9c1-1 2.083-2.068 3.157-3.121a5 5 0 1 0 -7-7.14c-3.514 3.444-7.146 7-8.428 7.33-1.278-.325-4.894-3.867-8.4-7.3a.145.145 0 0 0 -.022-.021l-.006-.007a5 5 0 1 0 -7 7.141l.016.017.011.011.017.015c1.059 1.039 2.129 2.087 3.113 3.078h-55.905v-101.471h55.907c-.982.988-2.048 2.033-3.1 3.068-.017.018-.036.035-.053.052a5 5 0 0 0 7 7.142l.006-.006.023-.023c3.5-3.436 7.121-6.977 8.4-7.3 1.282.326 4.914 3.886 8.428 7.33a5 5 0 1 0 7-7.14l-.007-.007c-1.071-1.051-2.154-2.112-3.15-3.114h91.9c-.992 1-2.069 2.054-3.136 3.1l-.019.019a5 5 0 1 0 7 7.14c.018-.016.035-.034.053-.051 3.5-3.428 7.1-6.954 8.375-7.279 1.275.325 4.877 3.851 8.375 7.279.018.017.035.035.053.051a5 5 0 1 0 7-7.14l-.019-.019c-1.067-1.046-2.144-2.1-3.136-3.1h91.9c-.991 1-2.069 2.055-3.137 3.1l-.019.019a5 5 0 0 0 7 7.142l.008-.009.008-.007.02-.02c3.5-3.433 7.115-6.97 8.392-7.295 1.281.325 4.91 3.882 8.422 7.325h.006a5 5 0 1 0 7-7.14l-.018-.019c-1.068-1.046-2.145-2.1-3.136-3.1h55.9zm0-111.468h-55.9c.982-.989 2.048-2.035 3.1-3.071l.041-.04.01-.009a5 5 0 1 0 -7-7.142l-.041.04c-3.5 3.432-7.11 6.966-8.387 7.29-1.28-.325-4.9-3.875-8.413-7.314l-.015-.016a5 5 0 0 0 -7 7.142l.008.007v.006.005l.027.025c1.059 1.038 2.127 2.086 3.111 3.077h-91.9c.982-.989 2.049-2.035 3.106-3.071l.041-.04.01-.009a5 5 0 1 0 -7-7.142l-.039.039c-3.5 3.432-7.113 6.967-8.389 7.291-1.277-.324-4.887-3.859-8.388-7.291l-.04-.039a5 5 0 0 0 -7 7.142l.01.009.041.04c1.057 1.036 2.123 2.082 3.106 3.071h-91.9c.982-.989 2.048-2.035 3.106-3.071l.04-.04.01-.009a5 5 0 1 0 -7-7.142c-3.514 3.444-7.147 7-8.428 7.33-1.275-.324-4.875-3.848-8.372-7.274l-.045-.045-.011-.011a5 5 0 0 0 -7 7.142l.008.007.012.012c1.067 1.046 2.145 2.1 3.136 3.1h-55.892v-101.468h54.906c-.7.692-1.418 1.4-2.136 2.1l-.012.013-.008.007a5 5 0 0 0 7 7.142l.011-.011.044-.043c3.5-3.428 7.1-6.953 8.373-7.277 1.281.326 4.908 3.881 8.42 7.323l.008.008a5 5 0 0 0 7-7.142l-.007-.006-.047-.047c-.707-.692-1.416-1.388-2.1-2.069h89.9c-.687.681-1.4 1.377-2.1 2.069l-.047.047-.007.006a5 5 0 1 0 7 7.142l.023-.023.011-.012c3.5-3.432 7.112-6.967 8.389-7.292 1.276.325 4.887 3.86 8.389 7.292l.011.012.024.023a5 5 0 0 0 7-7.142l-.007-.006-.047-.047c-.706-.692-1.416-1.388-2.1-2.069h89.9c-.69.684-1.4 1.383-2.111 2.078l-.037.037-.008.007a5 5 0 0 0 7 7.142l.021-.021c3.508-3.438 7.128-6.985 8.407-7.31 1.277.325 4.886 3.859 8.388 7.291l.014.014.008.008c.006 0 .012.012.018.018a5 5 0 0 0 7-7.142l-.007-.006-.047-.047c-.706-.692-1.415-1.388-2.1-2.069h54.9zm52.382 170.985h-42.382v-322.809a21.191 21.191 0 1 1 42.382 0z"/><path d="m34 163.622a5 5 0 0 0 -5 5v108.017a5 5 0 0 0 10 0v-108.017a5 5 0 0 0 -5-5z"/><path d="m34 141.892a5 5 0 0 0 -5 5v4.025a5 5 0 0 0 10 0v-4.025a5 5 0 0 0 -5-5z"/></svg>