<svg id="Layer_43" height="512" viewBox="0 0 100 100" width="512" xmlns="http://www.w3.org/2000/svg" data-name="Layer 43"><path d="m90 16.5h-80c-3.309 0-6 2.691-6 6v55c0 3.309 2.691 6 6 6h80c3.309 0 6-2.691 6-6v-55c0-3.309-2.691-6-6-6zm4 61c0 2.206-1.794 4-4 4h-80c-2.206 0-4-1.794-4-4v-55c0-2.206 1.794-4 4-4h80c2.206 0 4 1.794 4 4zm-63.237-26.771h-7.524c-7.456 0-13.522 6.066-13.522 13.522v7.902c0 .553.448 1 1 1h32.569c.552 0 1-.447 1-1v-7.902c0-7.456-6.066-13.522-13.522-13.522zm11.522 20.425h-30.568v-6.902c0-6.354 5.169-11.522 11.522-11.522h7.524c6.354 0 11.522 5.169 11.522 11.522zm-15.285-23.696c5.683 0 10.306-4.623 10.306-10.306s-4.623-10.305-10.306-10.305-10.305 4.623-10.305 10.305 4.623 10.306 10.305 10.306zm0-18.61c4.58 0 8.306 3.726 8.306 8.305s-3.726 8.306-8.306 8.306-8.305-3.726-8.305-8.306 3.726-8.305 8.305-8.305zm63.285 15.664c0 .553-.448 1-1 1h-34.571c-.552 0-1-.447-1-1s.448-1 1-1h34.571c.552 0 1 .447 1 1zm0 9.214c0 .553-.448 1-1 1h-34.571c-.552 0-1-.447-1-1s.448-1 1-1h34.571c.552 0 1 .447 1 1zm0 9.215c0 .553-.448 1-1 1h-34.571c-.552 0-1-.447-1-1s.448-1 1-1h34.571c.552 0 1 .447 1 1zm0 9.214c0 .553-.448 1-1 1h-34.571c-.552 0-1-.447-1-1s.448-1 1-1h34.571c.552 0 1 .447 1 1zm-30.765-47.825c0-1.583-1.292-2.87-2.88-2.87h-3.16c-.848-1.036-2.112-1.64-3.48-1.64s-2.632.604-3.48 1.64h-3.16c-1.588 0-2.88 1.287-2.88 2.87s1.292 2.88 2.88 2.88h3.162c.853 1.036 2.116 1.64 3.479 1.64s2.626-.604 3.479-1.64h3.162c1.588 0 2.88-1.292 2.88-2.88zm-6.55.88c-.343 0-.662.176-.845.466-.465.735-1.259 1.174-2.125 1.174s-1.66-.438-2.125-1.174c-.183-.29-.502-.466-.845-.466h-3.67c-.485 0-.88-.395-.88-.88 0-.479.395-.87.88-.87h3.67c.345 0 .665-.178.848-.47.458-.732 1.252-1.17 2.122-1.17s1.664.438 2.122 1.17c.183.292.503.47.848.47h3.67c.485 0 .88.391.88.87 0 .485-.395.88-.88.88z"/></svg>