<svg height="511pt" viewBox="1 -1 511.999 511" width="511pt" xmlns="http://www.w3.org/2000/svg"><path d="m491.050781 206.96875h-.464843c-31.65625-33.113281-55.296876-64.585938-68.453126-91.148438-4.210937-8.503906-12.40625-14.464843-21.695312-16.101562v-5.0625c0-12.785156-8.238281-23.6875-19.679688-27.671875l-7.035156-47.785156c-1.566406-10.660157-10.878906-18.699219-21.65625-18.699219h-21.730468c-10.777344 0-20.085938 8.039062-21.65625 18.703125l-.28125 1.910156h-63.519532c-37.914062 0-72.238281 24.902344-87.449218 63.441407-15.957032 40.425781-51.074219 33.199218-53.550782 33.925781-4.710937-13.449219-17.53125-23.125-32.574218-23.125h-2.691407v-34.988281c0-14.027344-11.410156-25.4375-25.4375-25.4375h-17.742187c-14.023438 0-25.433594 11.410156-25.433594 25.4375v12.585937c0 4.144531 3.359375 7.5 7.5 7.5s7.5-3.355469 7.5-7.5v-12.585937c0-5.753907 4.679688-10.4375 10.433594-10.4375h17.742187c5.753907 0 10.4375 4.683593 10.4375 10.4375v151.042968c0 20.925782-11.335937 40.289063-29.582031 50.53125-4.039062 2.265625-9.03125-.644531-9.03125-5.285156v-153.699219c0-4.144531-3.355469-7.5-7.5-7.5-4.140625 0-7.5 3.355469-7.5 7.5v153.699219c0 16.082031 17.308594 26.257812 31.375 18.367188 22.96875-12.898438 37.234375-37.273438 37.234375-63.613282v-25.070312h2.695313c14.316406 0 26.625-8.765625 31.835937-21.214844 1.660156-.5 69.476563 7.992188 97.675781-63.441406 8.132813-20.609375 25.429688-33.925782 44.0625-33.925782h54.785156c-20.457031 8.851563-17.507812 31.25-17.695312 31.960938-9.292969 1.636719-17.484375 7.597656-21.699219 16.101562-13.15625 26.5625-36.796875 58.035157-68.453125 91.148438h-.464844c-11.550781 0-20.949218 9.398438-20.949218 20.949219 0 20.210937 16.441406 36.652343 36.648437 36.652343h.808594l50.523437 191.667969c3.128907 11.875 13.890626 20.167969 26.171876 20.167969h1.050781c3.15625 6.011719 5.867187 11.808594 8.078125 17.273438 3.867187 9.574218 13.703125 16.007812 24.472656 16.007812h46.089844c10.769531 0 20.601562-6.433594 24.472656-16.007812 2.207031-5.464844 4.917969-11.261719 8.074219-17.273438.101562-.035156 21.671875.894531 27.226562-20.167969l50.519531-191.667969h.808594c20.210938 0 36.652344-16.441406 36.652344-36.652343 0-11.550781-9.398438-20.949219-20.949219-20.949219zm-160.714843-191.46875h21.730468c3.390625 0 6.320313 2.527344 6.816406 5.882812l6.472657 43.980469h-48.308594l6.46875-43.976562c.496094-3.355469 3.425781-5.886719 6.820313-5.886719zm-239.535157 136.34375c0 10.75-8.746093 19.496094-19.496093 19.496094h-2.695313v-60.984375h2.695313c10.75 0 19.496093 8.746093 19.496093 19.496093zm96.0625-55.667969c-12.9375 32.773438-41.785156 53.949219-73.496093 53.949219h-7.566407v-16.644531h7.566407c24.832031 0 47.601562-17.042969 58.015624-43.417969 12.933594-32.773438 41.78125-53.953125 73.492188-53.953125h61.316406l-2.453125 16.648437h-58.863281c-24.828125 0-47.601562 17.042969-58.011719 43.417969zm124.398438-15.8125h59.878906c7.882813 0 14.292969 6.414063 14.292969 14.292969v4.609375h-88.46875v-4.609375c0-7.878906 6.414062-14.292969 14.296875-14.292969zm-37.550781 42.113281c2.472656-4.988281 7.746093-8.210937 13.433593-8.210937h108.113281c5.6875 0 10.960938 3.222656 13.433594 8.210937 12.417969 25.074219 33.488282 54.058594 61.351563 84.492188h-257.683594c27.863281-30.433594 48.933594-59.417969 61.351563-84.492188zm-.824219 329.9375-49.515625-187.84375h53.492187l34.105469 196.835938c-8.734375 0-16.597656 0-26.414062 0-5.472657 0-10.273438-3.699219-11.667969-8.992188zm101.925781 35.648438c-1.601562 3.964844-5.847656 6.625-10.566406 6.625h-46.089844c-4.71875 0-8.964844-2.660156-10.566406-6.625-1.519532-3.765625-3.253906-7.660156-5.183594-11.65625h77.589844c-1.929688 3.996094-3.664063 7.890625-5.183594 11.65625zm34.703125-35.648438c-1.398437 5.292969-6.195313 8.992188-11.667969 8.992188-5.996094 0-20.625 0-26.414062 0l6.089844-35.132812c.707031-4.082032-2.03125-7.964844-6.113282-8.671876-4.074218-.703124-7.960937 2.027344-8.667968 6.109376l-6.53125 37.691406h-30.019532l-34.105468-196.835938h98.230468l-22.453125 129.582032c-.707031 4.082031 2.027344 7.964843 6.109375 8.671874 4.074219.707032 7.960938-2.023437 8.671875-6.109374l22.894531-132.144532h53.488282zm65.832031-202.84375h-268.296875c-11.9375 0-21.648437-9.714843-21.648437-21.652343 0-3.28125 2.667968-5.949219 5.949218-5.949219h299.699219c3.28125 0 5.949219 2.667969 5.949219 5.949219 0 11.9375-9.710938 21.652343-21.652344 21.652343zm0 0"/></svg>