<svg id="Layer_1_copy_5" viewBox="0 0 64 64" xmlns="http://www.w3.org/2000/svg" data-name="Layer 1 copy 5"><path d="m46.757 36.417v10.634a.5.5 0 0 0 .5.5h9.764a.5.5 0 0 0 .5-.5v-13.846a6.442 6.442 0 0 0 -5.569-9.724h-10.994a9.666 9.666 0 0 0 -4.592-2.793v-4.964a6.159 6.159 0 0 0 2.134-1.575h9.155a4.024 4.024 0 1 0 0-8.048h-9.161a6.1 6.1 0 0 0 -9.213 0h-9.158a4.024 4.024 0 1 0 0 8.048h9.156a6.155 6.155 0 0 0 2.13 1.575v4.964a9.671 9.671 0 0 0 -4.592 2.793h-8.766v-6.607a.5.5 0 0 0 -.5-.5h-11.471a.5.5 0 0 0 -.5.5v26.15a.5.5 0 0 0 .5.5h11.471a.5.5 0 0 0 .5-.5v-6.607h8.771a9.554 9.554 0 0 0 14.131 0zm1 10.134v-1.551h8.764v1.547zm-.1-39.45a3.024 3.024 0 1 1 0 6.048h-8.448a6.079 6.079 0 0 0 0-6.048zm-27.534 6.048a3.024 3.024 0 0 1 0-6.048h8.445a6.082 6.082 0 0 0 0 6.048zm8.639-3.023a5.126 5.126 0 1 1 5.126 5.126 5.132 5.132 0 0 1 -5.126-5.126zm5.126 6.126a6.107 6.107 0 0 0 1.478-.187v6.035h-2.957v-6.035a6.115 6.115 0 0 0 1.479.187zm-16.837 26.272h-10.471v-25.15h10.471zm16.837-3.984a8.6 8.6 0 0 1 -6.479-2.951l-.013-.01a.47.47 0 0 0 -.089-.069.517.517 0 0 0 -.069-.046.528.528 0 0 0 -.078-.021.493.493 0 0 0 -.113-.023h-.015-8.981v-10.939h8.981a.506.506 0 0 0 .2-.042.319.319 0 0 0 .038-.026.493.493 0 0 0 .127-.094l.013-.009a8.661 8.661 0 0 1 4-2.562v.852a.5.5 0 0 0 .5.5h3.957a.5.5 0 0 0 .5-.5v-.853a8.655 8.655 0 0 1 4 2.562l.013.009a.493.493 0 0 0 .127.094.428.428 0 0 0 .038.026.506.506 0 0 0 .2.042h11.207a5.474 5.474 0 0 1 5.468 5.468 5.409 5.409 0 0 1 -.823 2.868.292.292 0 0 0 -.014.038.606.606 0 0 0 -.054.19c0 .013-.008.024-.008.037v10.919h-8.764v-8.083a.5.5 0 0 0 -.5-.5h-6.514-.015a.468.468 0 0 0 -.117.024.557.557 0 0 0 -.073.019.452.452 0 0 0 -.075.051.494.494 0 0 0 -.084.065l-.013.01a8.6 8.6 0 0 1 -6.478 2.954zm17.483 9.851c-.356.542-1.518 2.38-1.518 3.255a1.937 1.937 0 1 0 3.874 0c0-.875-1.164-2.713-1.52-3.255a.518.518 0 0 0 -.836 0zm.418 4.192a.937.937 0 0 1 -.936-.937 6.835 6.835 0 0 1 .936-2.038 6.83 6.83 0 0 1 .938 2.038.938.938 0 0 1 -.938.937zm-.418 2.225c-.356.542-1.518 2.38-1.518 3.255a1.937 1.937 0 1 0 3.874 0c0-.875-1.164-2.713-1.52-3.255a.518.518 0 0 0 -.836 0zm.418 4.192a.937.937 0 0 1 -.936-.937 6.835 6.835 0 0 1 .936-2.038 6.83 6.83 0 0 1 .938 2.038.938.938 0 0 1 -.938.937zm-4.277-10.835a.5.5 0 0 0 -.418.226c-.357.542-1.52 2.38-1.52 3.255a1.937 1.937 0 1 0 3.874 0c0-.875-1.162-2.713-1.518-3.255a.5.5 0 0 0 -.418-.226zm0 4.418a.938.938 0 0 1 -.938-.937 6.83 6.83 0 0 1 .938-2.038 6.835 6.835 0 0 1 .936 2.038.937.937 0 0 1 -.936.937zm8.137-4.192c-.356.542-1.518 2.38-1.518 3.255a1.937 1.937 0 1 0 3.873 0c0-.875-1.162-2.713-1.519-3.255a.519.519 0 0 0 -.836 0zm.418 4.192a.937.937 0 0 1 -.936-.937 6.822 6.822 0 0 1 .936-2.037 6.833 6.833 0 0 1 .933 2.037.938.938 0 0 1 -.933.937z" fill="#82368c"/></svg>