<svg enable-background="new 0 0 512 512" height="512" viewBox="0 0 512 512" width="512" xmlns="http://www.w3.org/2000/svg"><g id="_x34_2_Smart_Water_Tap"><g><g><path d="m416.341 59.615c-47.754 0-93.552 0-128.423 0-2.936 0-5.317 2.378-5.317 5.317s2.381 5.317 5.317 5.317h80.104v67.437h-200.575c-48.685 0-90.932 32.971-102.737 80.184-3.928 15.714 8.13 31.019 24.445 31.019h22.392v30.224c0 10.203 8.302 18.505 18.508 18.505h63.888c10.205 0 18.508-8.302 18.508-18.505v-30.224h155.571v237.245c0 10.203 8.302 18.505 18.505 18.505h43.005c10.203 0 18.505-8.302 18.505-18.505v-394.82c0-17.477-14.219-31.699-31.696-31.699zm-214.524 219.498c0 4.341-3.533 7.871-7.874 7.871h-63.888c-4.341 0-7.874-3.531-7.874-7.871v-30.224h79.636zm-112.662-40.858c-9.415 0-16.375-8.822-14.128-17.809 10.618-42.468 48.623-72.126 92.42-72.126h200.575v89.935c-64.053 0-220.415 0-278.867 0zm348.248 247.879c0 4.341-3.531 7.871-7.871 7.871h-43.005c-4.341 0-7.871-3.531-7.871-7.871 0-94.922 0-327.376 0-415.885h37.685c11.615 0 21.062 9.45 21.062 21.065z"/><path d="m162.029 321.56c-.003 0-.003 0-.003 0-1.664 0-3.232.779-4.237 2.103-4.211 5.556-41.136 54.945-41.136 78.175 0 24.99 20.354 45.318 45.373 45.318 24.988 0 45.318-20.328 45.318-45.318 0-23.23-36.873-72.614-41.079-78.17-1.004-1.329-2.572-2.108-4.236-2.108zm-.003 114.962c-19.154 0-34.739-15.561-34.739-34.684 0-14.793 22.174-48.589 34.736-66.004 12.547 17.415 34.687 51.211 34.687 66.004.001 19.123-15.558 34.684-34.684 34.684z"/><path d="m159.633 96.969c2.936 0 5.317-2.378 5.317-5.317 0-40.614 33.075-73.658 73.73-73.658 2.936 0 5.317-2.378 5.317-5.317s-2.381-5.317-5.317-5.317c-46.518 0-84.364 37.815-84.364 84.291 0 2.94 2.38 5.318 5.317 5.318z"/><path d="m243.997 40.077c0-2.939-2.381-5.317-5.317-5.317-31.411 0-56.964 25.52-56.964 56.892 0 2.939 2.381 5.317 5.317 5.317s5.317-2.378 5.317-5.317c0-25.504 20.785-46.258 46.331-46.258 2.935 0 5.316-2.378 5.316-5.317z"/><path d="m233.35 91.678c0 2.829 2.466 5.317 5.317 5.317 2.916 0 5.317-2.389 5.317-5.317 0-2.898-2.219-5.29-5.291-5.29-3.184 0-5.343 2.582-5.343 5.29z"/><path d="m238.682 62.154c-16.304 0-29.567 13.23-29.567 29.497 0 2.939 2.381 5.317 5.317 5.317s5.317-2.378 5.317-5.317c0-10.4 8.495-18.864 18.934-18.864 2.936 0 5.317-2.378 5.317-5.317-.001-2.937-2.381-5.316-5.318-5.316z"/></g></g></g></svg>