<?xml version="1.0" encoding="utf-8"?>
<!-- Generator: Adobe Illustrator 16.0.0, SVG Export Plug-In . SVG Version: 6.00 Build 0)  -->
<!DOCTYPE svg PUBLIC "-//W3C//DTD SVG 1.1//EN" "http://www.w3.org/Graphics/SVG/1.1/DTD/svg11.dtd">
<svg version="1.1" id="Layer_1" xmlns="http://www.w3.org/2000/svg" xmlns:xlink="http://www.w3.org/1999/xlink" x="0px" y="0px"
	 width="500px" height="237px" viewBox="0 0 500 237" enable-background="new 0 0 500 237" xml:space="preserve">
<g>
	<g>
		<g>
			<path d="M124.006,72.817h17.919c16.925,0,28.616,11.61,28.616,26.76v0.156c0,15.153-11.691,26.917-28.616,26.917h-17.919V72.817z
				 M141.925,122.967c15.002,0,24.462-10.232,24.462-23.077v-0.156c0-12.764-9.46-23.226-24.462-23.226h-13.919v46.459H141.925z"/>
			<path d="M185.62,111.424V87.428h3.77v23.307c0,8.076,4.539,13.381,12.459,13.381c7.69,0,13.614-5.844,13.614-13.994V87.428h3.771
				v39.223h-3.771v-7.301c-2.616,4.617-7.001,8.227-14.151,8.227C191.388,127.576,185.62,120.811,185.62,111.424z"/>
			<path d="M232.616,87.428H237l14.848,34.998l14.996-34.998h4.229l-17.609,39.539h-3.234L232.616,87.428z"/>
			<path d="M284.537,72.047h4.691v5.15h-4.691V72.047z M285,87.428h3.766v39.223H285V87.428z"/>
			<path d="M339.383,107.119v-0.156c0-11.383,7.998-20.456,18.613-20.456c10.998,0,17.998,8.922,17.998,20.532
				c0,0.695,0,0.926-0.078,1.541h-32.533c0.689,9.768,7.691,15.463,15.379,15.463c6.08,0,10.232-2.695,13.463-6.156l2.615,2.309
				c-4.002,4.311-8.691,7.381-16.232,7.381C348.305,127.576,339.383,119.35,339.383,107.119z M371.916,105.196
				c-0.539-7.92-5.074-15.23-14.074-15.23c-7.768,0-13.77,6.535-14.459,15.23H371.916z"/>
		</g>
		<polygon fill="#ED1C26" points="310.389,50.114 304.648,54.691 304.627,126.756 310.389,126.756 		"/>
		<polygon fill="#ED1C26" points="320.244,50.114 325.992,54.691 326.014,126.756 320.244,126.756 		"/>
	</g>
	<g>
		<path d="M180.515,161.124h-7.527v6.559h8.812v1.938h-11.291v-18.326h11.152v1.951h-8.673v5.928h7.527V161.124z"/>
		<path d="M206.357,165.001c0-0.83-0.298-1.527-0.894-2.09s-1.645-1.039-3.146-1.434c-1.863-0.463-3.317-1.143-4.362-2.041
			c-1.044-0.896-1.566-2.025-1.566-3.385c0-1.436,0.562-2.631,1.687-3.588c1.124-0.957,2.584-1.436,4.38-1.436
			c1.931,0,3.468,0.549,4.613,1.643c1.146,1.096,1.701,2.373,1.668,3.834l-0.037,0.076h-2.367c0-1.041-0.362-1.902-1.089-2.582
			c-0.726-0.68-1.655-1.02-2.788-1.02c-1.157,0-2.045,0.281-2.662,0.844c-0.616,0.563-0.925,1.293-0.925,2.191
			c0,0.797,0.338,1.461,1.014,1.994c0.675,0.533,1.772,1,3.291,1.404c1.846,0.477,3.252,1.182,4.217,2.113s1.447,2.082,1.447,3.449
			c0,1.477-0.581,2.664-1.743,3.563s-2.679,1.348-4.55,1.348c-1.771,0-3.334-0.496-4.689-1.486c-1.354-0.99-2.012-2.316-1.97-3.977
			l0.025-0.076h2.366c0,1.15,0.437,2.037,1.31,2.662c0.872,0.625,1.858,0.938,2.958,0.938c1.175,0,2.104-0.264,2.788-0.793
			C206.016,166.624,206.357,165.907,206.357,165.001z"/>
		<path d="M237.021,153.245h-6.043v16.375H228.5v-16.375h-5.967v-1.951h14.488V153.245z"/>
		<path d="M259.955,164.899h-6.896l-1.637,4.721h-2.53l6.608-18.326h2.127l6.471,18.326h-2.531L259.955,164.899z M253.775,162.823
			h5.475l-2.668-7.867h-0.076L253.775,162.823z"/>
		<path d="M289.84,153.245h-6.043v16.375h-2.48v-16.375h-5.965v-1.951h14.488V153.245z"/>
		<path d="M314.311,161.124h-7.527v6.559h8.811v1.938h-11.291v-18.326h11.152v1.951h-8.672v5.928h7.527V161.124z"/>
		<path d="M340.152,165.001c0-0.83-0.297-1.527-0.893-2.09s-1.645-1.039-3.146-1.434c-1.863-0.463-3.316-1.143-4.361-2.041
			c-1.045-0.896-1.568-2.025-1.568-3.385c0-1.436,0.563-2.631,1.688-3.588s2.584-1.436,4.381-1.436c1.93,0,3.467,0.549,4.613,1.643
			c1.145,1.096,1.701,2.373,1.666,3.834l-0.037,0.076h-2.365c0-1.041-0.363-1.902-1.09-2.582s-1.654-1.02-2.787-1.02
			c-1.158,0-2.047,0.281-2.662,0.844c-0.617,0.563-0.926,1.293-0.926,2.191c0,0.797,0.338,1.461,1.014,1.994
			c0.674,0.533,1.771,1,3.291,1.404c1.846,0.477,3.252,1.182,4.217,2.113s1.447,2.082,1.447,3.449c0,1.477-0.582,2.664-1.744,3.563
			s-2.678,1.348-4.549,1.348c-1.771,0-3.334-0.496-4.689-1.486s-2.012-2.316-1.971-3.977l0.025-0.076h2.367
			c0,1.15,0.436,2.037,1.309,2.662s1.859,0.938,2.959,0.938c1.174,0,2.104-0.264,2.787-0.793S340.152,165.907,340.152,165.001z"/>
	</g>
</g>
</svg>
